<?xml version="1.0" encoding="UTF-8" standalone="no"?>
<!-- Created with Inkscape (http://www.inkscape.org/) -->

<svg
   xmlns:dc="http://purl.org/dc/elements/1.1/"
   xmlns:cc="http://creativecommons.org/ns#"
   xmlns:rdf="http://www.w3.org/1999/02/22-rdf-syntax-ns#"
   xmlns:svg="http://www.w3.org/2000/svg"
   xmlns="http://www.w3.org/2000/svg"
   xmlns:xlink="http://www.w3.org/1999/xlink"
   xmlns:sodipodi="http://sodipodi.sourceforge.net/DTD/sodipodi-0.dtd"
   xmlns:inkscape="http://www.inkscape.org/namespaces/inkscape"
   width="200"
   height="200"
   viewBox="0 0 200 200"
   id="svg5276"
   version="1.1"
   inkscape:version="0.91 r13725"
   sodipodi:docname="splashsvg.svg">
  <defs
     id="defs5278">
    <linearGradient
       inkscape:collect="always"
       xlink:href="#linearGradient5178"
       id="linearGradient5103"
       gradientUnits="userSpaceOnUse"
       x1="3716.125"
       y1="4787.1226"
       x2="3834.7366"
       y2="4789.2036" />
    <linearGradient
       inkscape:collect="always"
       id="linearGradient5178">
      <stop
         style="stop-color:#f9f9f9;stop-opacity:1;"
         offset="0"
         id="stop5180" />
      <stop
         style="stop-color:#4d4d4d;stop-opacity:1"
         offset="1"
         id="stop5182" />
    </linearGradient>
    <linearGradient
       inkscape:collect="always"
       xlink:href="#linearGradient5178"
       id="linearGradient5932"
       gradientUnits="userSpaceOnUse"
       x1="3716.125"
       y1="4787.1226"
       x2="3834.7366"
       y2="4789.2036" />
    <linearGradient
       inkscape:collect="always"
       xlink:href="#linearGradient5178"
       id="linearGradient5934"
       gradientUnits="userSpaceOnUse"
       x1="3716.125"
       y1="4787.1226"
       x2="3834.7366"
       y2="4789.2036" />
    <linearGradient
       inkscape:collect="always"
       xlink:href="#linearGradient5178"
       id="linearGradient5936"
       gradientUnits="userSpaceOnUse"
       x1="3716.125"
       y1="4787.1226"
       x2="3834.7366"
       y2="4789.2036" />
    <linearGradient
       inkscape:collect="always"
       xlink:href="#linearGradient5178"
       id="linearGradient5938"
       gradientUnits="userSpaceOnUse"
       x1="3716.125"
       y1="4787.1226"
       x2="3834.7366"
       y2="4789.2036" />
    <linearGradient
       inkscape:collect="always"
       xlink:href="#linearGradient5178"
       id="linearGradient5940"
       gradientUnits="userSpaceOnUse"
       x1="3716.125"
       y1="4787.1226"
       x2="3834.7366"
       y2="4789.2036" />
    <linearGradient
       inkscape:collect="always"
       xlink:href="#linearGradient5178"
       id="linearGradient5942"
       gradientUnits="userSpaceOnUse"
       x1="3716.125"
       y1="4787.1226"
       x2="3834.7366"
       y2="4789.2036" />
    <linearGradient
       inkscape:collect="always"
       xlink:href="#linearGradient5178"
       id="linearGradient5944"
       gradientUnits="userSpaceOnUse"
       x1="3716.125"
       y1="4787.1226"
       x2="3834.7366"
       y2="4789.2036" />
    <linearGradient
       inkscape:collect="always"
       xlink:href="#linearGradient5178"
       id="linearGradient5946"
       gradientUnits="userSpaceOnUse"
       x1="3716.125"
       y1="4787.1226"
       x2="3834.7366"
       y2="4789.2036" />
  </defs>
  <sodipodi:namedview
     id="base"
     pagecolor="#ffffff"
     bordercolor="#666666"
     borderopacity="1.0"
     inkscape:pageopacity="0.0"
     inkscape:pageshadow="2"
     inkscape:zoom="0.98994949"
     inkscape:cx="100.96662"
     inkscape:cy="134.73899"
     inkscape:document-units="px"
     inkscape:current-layer="layer1"
     showgrid="false"
     units="px"
     inkscape:window-width="1366"
     inkscape:window-height="715"
     inkscape:window-x="-8"
     inkscape:window-y="-8"
     inkscape:window-maximized="1" />
  <metadata
     id="metadata5281">
    <rdf:RDF>
      <cc:Work
         rdf:about="">
        <dc:format>image/svg+xml</dc:format>
        <dc:type
           rdf:resource="http://purl.org/dc/dcmitype/StillImage" />
        <dc:title></dc:title>
      </cc:Work>
    </rdf:RDF>
  </metadata>
  <g
     inkscape:label="Calque 1"
     inkscape:groupmode="layer"
     id="layer1"
     transform="translate(0,-852.36216)">
    <g
       id="g5979">
      <path
         transform="scale(-1,1)"
         style="opacity:1;fill:none;fill-opacity:0.69019608;stroke:#ffffff;stroke-width:1.84051204;stroke-linecap:round;stroke-linejoin:round;stroke-miterlimit:4;stroke-dasharray:none;stroke-dashoffset:0;stroke-opacity:1"
         id="path5135"
         sodipodi:type="arc"
         sodipodi:cx="-101.55963"
         sodipodi:cy="953.78894"
         sodipodi:rx="91.039917"
         sodipodi:ry="91.039917"
         sodipodi:start="1.5708661"
         sodipodi:end="1.5329576"
         sodipodi:open="true"
         d="m -101.56598,1044.8289 a 91.039917,91.039917 0 0 1 -91.02954,-90.18353 91.039917,91.039917 0 0 1 89.31675,-91.88011 91.039917,91.039917 0 0 1 92.722443,88.44199 91.039917,91.039917 0 0 1 -87.559292,93.55645" />
      <g
         transform="matrix(0.920256,0,0,0.920256,-3837.3302,-3769.2338)"
         id="g5058">
        <path
           sodipodi:nodetypes="sccccscccccccscsccscscccccccsscccsscccccscc"
           inkscape:connector-curvature="0"
           id="path5004"
           d="m 4283.1619,5050.2445 c -0.261,0 -0.4816,0.1099 -0.7026,0.2574 -0.2209,0.1476 -0.4429,0.3432 -0.6718,0.5739 -0.4577,0.4615 -0.9386,1.0617 -1.3864,1.6667 -0.8518,1.1508 -1.5098,2.2181 -1.6372,2.4242 -6.8709,0.8397 -12.3269,4.4141 -16.1478,8.442 -3.8539,4.0627 -5.7029,8.5399 -6.0817,11.2618 -0.5469,3.928 0.5537,10.9708 0.5537,10.9708 l 0.069,0.4452 0.042,-0.1837 c 14.585,-6.4863 30.265,-8.6987 46.8452,-1.4428 l 0.3983,0.1743 0.076,-0.4277 c 0,0 0.156,-1.5391 0.3588,-3.521 0.2028,-1.982 0.459,-4.4039 0.1507,-6.239 -0.3701,-2.2037 -2.1173,-6.764 -5.5672,-10.9802 -3.3871,-4.1395 -8.4603,-7.8837 -15.4265,-8.5573 0.2161,-0.8193 0.4137,-1.6759 0.4157,-2.4645 0,-0.9053 -0.2063,-1.7586 -0.8688,-2.2607 -0.1222,-0.093 -0.2778,-0.1388 -0.4197,-0.1394 z m -0.01,0.6865 0,0 c 0.018,1e-4 0.01,0 0.01,0 0.4138,0.3136 0.5988,0.914 0.5967,1.7122 0,0.7983 -0.1959,1.7525 -0.4505,2.6415 l -0.1154,0.4036 0.4184,0.032 c 6.9509,0.5507 12.4373,4.2656 15.8042,8.3804 3.3668,4.1147 4.5943,8.6566 4.9307,10.6584 0.2861,1.703 0.1651,4.102 -0.035,6.0566 -0.1764,1.7241 -0.3644,2.7581 -0.4169,3.0598 -16.4575,-7.0506 -31.4807,-4.9089 -45.9387,1.4293 -0.1017,-0.696 -1.1095,-6.8521 -0.6241,-10.3393 0.3415,-2.4529 2.009,-6.9115 5.7782,-10.8849 3.7691,-3.9735 9.1334,-7.4923 15.8957,-8.269 l 0.1663,-0.019 0.087,-0.1421 c 0.4309,0.2653 0.8146,-1.3192 1.6882,-2.4993 0.4367,-0.5901 0.9052,-1.1714 1.322,-1.5916 0.2085,-0.2102 0.4045,-0.3803 0.5659,-0.4881 0.1614,-0.1078 0.2863,-0.141 0.3178,-0.1408 z"
           style="color:#000000;font-style:normal;font-variant:normal;font-weight:normal;font-stretch:normal;font-size:medium;line-height:normal;font-family:sans-serif;text-indent:0;text-align:start;text-decoration:none;text-decoration-line:none;text-decoration-style:solid;text-decoration-color:#000000;letter-spacing:normal;word-spacing:normal;text-transform:none;direction:ltr;block-progression:tb;writing-mode:lr-tb;baseline-shift:baseline;text-anchor:start;white-space:normal;clip-rule:nonzero;display:inline;overflow:visible;visibility:visible;opacity:1;isolation:auto;mix-blend-mode:normal;color-interpolation:sRGB;color-interpolation-filters:linearRGB;solid-color:#000000;solid-opacity:1;fill:#f9f9f9;fill-opacity:1;fill-rule:evenodd;stroke:none;stroke-width:0;stroke-linecap:butt;stroke-linejoin:miter;stroke-miterlimit:4;stroke-dasharray:none;stroke-dashoffset:0;stroke-opacity:1;color-rendering:auto;image-rendering:auto;shape-rendering:auto;text-rendering:auto;enable-background:accumulate" />
        <path
           sodipodi:nodetypes="cccccccccaaaccccccccccscccccccaaacccccccs"
           inkscape:connector-curvature="0"
           id="path5006"
           d="m 4285.6278,5076.6136 c -9.8405,-0.3822 -19.2489,2.0937 -28.3309,5.0832 l -0.1542,0.051 0.8112,8.3507 -3.6323,-1.1517 -1.3798,1.0203 4.2237,10.633 3.4446,1.1544 4.1191,10.6705 c 0,0 9.198,6.1557 14.3927,7.8547 0.9896,0.3236 2.0549,0.407 3.0961,0.413 1.1404,0.01 2.3278,-0.014 3.3963,-0.413 4.5582,-1.7004 12.1025,-8.1577 12.1025,-8.1577 l 2.7769,-8.9663 5.5914,-4.634 1.3475,-8.8295 -1.2724,-1.6304 -2.9231,1.0954 0.724,-8.2019 -0.1314,-0.059 c -6.2379,-2.7947 -12.2977,-4.0534 -18.2019,-4.2827 z m -0.023,0.4009 c 5.8175,0.2257 11.7843,1.4695 17.9271,4.2009 l -0.7549,8.5452 3.2476,-1.2161 0.9815,1.259 -1.298,8.5051 -5.5659,4.6124 -2.7701,8.9462 c 0,0 -7.1507,6.724 -11.6576,8.2674 -1.1029,0.3778 -2.3294,0.2028 -3.494,0.1505 -0.9978,-0.045 -2.0207,-0.086 -2.97,-0.3969 -5.1241,-1.6761 -14.1982,-7.7461 -14.1982,-7.7461 l -4.1339,-10.7107 -3.446,-1.1558 -4.0399,-10.169 0.964,-0.712 4.0198,1.2738 -0.8393,-8.6311 c 9.0187,-2.9617 18.3161,-5.3995 28.0278,-5.0228 z"
           style="color:#000000;font-style:normal;font-variant:normal;font-weight:normal;font-stretch:normal;font-size:medium;line-height:normal;font-family:sans-serif;text-indent:0;text-align:start;text-decoration:none;text-decoration-line:none;text-decoration-style:solid;text-decoration-color:#000000;letter-spacing:normal;word-spacing:normal;text-transform:none;direction:ltr;block-progression:tb;writing-mode:lr-tb;baseline-shift:baseline;text-anchor:start;white-space:normal;clip-rule:nonzero;display:inline;overflow:visible;visibility:visible;opacity:1;isolation:auto;mix-blend-mode:normal;color-interpolation:sRGB;color-interpolation-filters:linearRGB;solid-color:#000000;solid-opacity:1;fill:#f9f9f9;fill-opacity:1;fill-rule:evenodd;stroke:none;stroke-width:0;stroke-linecap:butt;stroke-linejoin:miter;stroke-miterlimit:4;stroke-dasharray:none;stroke-dashoffset:0;stroke-opacity:1;color-rendering:auto;image-rendering:auto;shape-rendering:auto;text-rendering:auto;enable-background:accumulate" />
        <path
           sodipodi:nodetypes="ccsccccc"
           style="fill:#f9f9f9;fill-opacity:0.05120485;fill-rule:evenodd;stroke:#000000;stroke-width:0;stroke-linecap:butt;stroke-linejoin:miter;stroke-miterlimit:4;stroke-dasharray:none;stroke-opacity:1"
           d="m 4282.9,5076.082 c -8.0117,0.055 -15.2016,2.0349 -25.4791,5.8348 0.1483,1.081 -0.1822,2.0433 -0.059,2.7383 0.1252,0.7048 0.4334,1.0121 0.4334,1.0121 14.6422,-6.5117 29.7092,-8.6203 46.386,-1.3221 0,0 -0.067,-1.479 0.2426,-3.6222 -8.0594,-3.0013 -14.4764,-4.6889 -21.5241,-4.6409 z"
           id="path5008"
           inkscape:connector-curvature="0" />
        <path
           sodipodi:nodetypes="ccccccscccccsccc"
           inkscape:connector-curvature="0"
           id="path5010"
           d="m 4292.7744,5101.7049 -0.7214,0.4667 c -7.1828,4.6443 -13.5833,3.4728 -19.9048,0.555 l -0.6208,-0.2869 0.1408,0.6691 c 0,0 0.4963,2.3689 2.0528,4.7399 1.5564,2.371 4.2246,4.7775 8.4769,4.7775 3.9831,0 6.6031,-2.5614 8.1885,-5.0712 1.5854,-2.5097 2.1869,-5.0147 2.1869,-5.0147 z m -1.125,1.4736 c -0.2455,0.8141 -0.7294,2.2467 -1.8436,4.0105 -1.5172,2.4018 -3.9177,4.1578 -7.6079,4.1578 -3.9958,0 -6.4249,-1.6232 -7.9031,-3.8749 -1.1458,-1.7455 -2.1847,-3.7808 -2.3713,-4.4778 5.995,2.6403 12.8964,4.2374 19.7259,0.1844 z"
           style="color:#000000;font-style:normal;font-variant:normal;font-weight:normal;font-stretch:normal;font-size:medium;line-height:normal;font-family:sans-serif;text-indent:0;text-align:start;text-decoration:none;text-decoration-line:none;text-decoration-style:solid;text-decoration-color:#000000;letter-spacing:normal;word-spacing:normal;text-transform:none;direction:ltr;block-progression:tb;writing-mode:lr-tb;baseline-shift:baseline;text-anchor:start;white-space:normal;clip-rule:nonzero;display:inline;overflow:visible;visibility:visible;opacity:1;isolation:auto;mix-blend-mode:normal;color-interpolation:sRGB;color-interpolation-filters:linearRGB;solid-color:#000000;solid-opacity:1;fill:#f9f9f9;fill-opacity:1;fill-rule:evenodd;stroke:none;stroke-width:0;stroke-linecap:butt;stroke-linejoin:miter;stroke-miterlimit:4;stroke-dasharray:none;stroke-dashoffset:0;stroke-opacity:1;color-rendering:auto;image-rendering:auto;shape-rendering:auto;text-rendering:auto;enable-background:accumulate" />
        <path
           sodipodi:nodetypes="ccccccccccccccscccccccccccccccccccccccccccsscsccccccccccc"
           inkscape:connector-curvature="0"
           id="path5012"
           d="m 4283.4167,5076.4326 c -9.0679,0.032 -17.7581,2.3631 -26.164,5.1301 l -0.2508,0.083 0.9868,8.6394 -3.7033,-1.4873 -1.5152,1.1196 4.2894,10.7952 3.4419,1.1545 4.1151,10.657 7.0314,4.5976 c 0.2791,3.262 0.2387,5.4709 -0.7495,8.0252 -1.0069,2.6023 -2.972,4.8128 -6.652,6.5594 l -0.2802,0.1328 0.1046,0.2923 c 0,0 4.6146,12.908 18.9046,13.143 7.0588,0.1161 11.6626,-3.503 14.4598,-7.1266 2.797,-3.6237 3.8321,-5.9078 3.8321,-5.9078 l 0.094,-0.3312 -0.3325,-0.092 c -3.8648,-1.0724 -5.7617,-4.4821 -6.7511,-7.1548 -0.9724,-2.6263 -1.0188,-5.2873 -0.995,-8.7676 l 4.5536,-3.6822 2.7795,-8.9743 5.6008,-4.6407 1.365,-8.9434 -1.3744,-1.7606 -2.8091,1.0526 1.0797,-8.0786 -0.2225,-0.099 c -7.0364,-3.1525 -14.2214,-4.3579 -20.8385,-4.335 z m 0,0.6865 c 6.4611,-0.023 13.4659,1.1526 20.3303,4.1888 l -1.1321,8.6633 3.3589,-1.2578 0.8822,1.1291 -1.2818,8.3923 -5.5565,4.6045 -2.7688,8.9381 -4.0452,3.7533 0,0.1809 c -0.027,3.556 -0.6226,6.3488 0.4289,9.1887 1.0171,2.7475 3.083,6.2896 6.8625,7.4417 -0.1373,0.2377 -1.0705,2.1037 -3.6043,5.3862 -2.7108,3.5118 -7.084,6.9719 -13.9046,6.8597 -13.4241,-0.2207 -17.8666,-11.6631 -18.1511,-12.4296 3.5952,-1.7823 5.6635,-4.0801 6.7016,-6.7632 1.0691,-2.7633 1.0902,-5.135 0.7898,-8.5106 l -0.016,-0.1824 -7.6358,-4.0462 -3.6502,-11.3371 -3.4459,-1.1558 -3.977,-10.0068 0.83,-0.6141 3.7758,0.9413 -0.4894,-8.3455 c 8.3026,-2.7222 16.8375,-4.9877 25.7001,-5.0188 z"
           style="color:#000000;font-style:normal;font-variant:normal;font-weight:normal;font-stretch:normal;font-size:medium;line-height:normal;font-family:sans-serif;text-indent:0;text-align:start;text-decoration:none;text-decoration-line:none;text-decoration-style:solid;text-decoration-color:#000000;letter-spacing:normal;word-spacing:normal;text-transform:none;direction:ltr;block-progression:tb;writing-mode:lr-tb;baseline-shift:baseline;text-anchor:start;white-space:normal;clip-rule:nonzero;display:inline;overflow:visible;visibility:visible;opacity:1;isolation:auto;mix-blend-mode:normal;color-interpolation:sRGB;color-interpolation-filters:linearRGB;solid-color:#000000;solid-opacity:1;fill:#f9f9f9;fill-opacity:1;fill-rule:evenodd;stroke:none;stroke-width:0;stroke-linecap:butt;stroke-linejoin:miter;stroke-miterlimit:4;stroke-dasharray:none;stroke-dashoffset:0;stroke-opacity:1;color-rendering:auto;image-rendering:auto;shape-rendering:auto;text-rendering:auto;enable-background:accumulate" />
        <path
           style="color:#000000;font-style:normal;font-variant:normal;font-weight:normal;font-stretch:normal;font-size:medium;line-height:normal;font-family:sans-serif;text-indent:0;text-align:start;text-decoration:none;text-decoration-line:none;text-decoration-style:solid;text-decoration-color:#000000;letter-spacing:normal;word-spacing:normal;text-transform:none;direction:ltr;block-progression:tb;writing-mode:lr-tb;baseline-shift:baseline;text-anchor:start;white-space:normal;clip-rule:nonzero;display:inline;overflow:visible;visibility:visible;opacity:1;isolation:auto;mix-blend-mode:normal;color-interpolation:sRGB;color-interpolation-filters:linearRGB;solid-color:#000000;solid-opacity:1;fill:#f9f9f9;fill-opacity:1;fill-rule:evenodd;stroke:none;stroke-width:0;stroke-linecap:butt;stroke-linejoin:miter;stroke-miterlimit:4;stroke-dasharray:none;stroke-dashoffset:0;stroke-opacity:1;color-rendering:auto;image-rendering:auto;shape-rendering:auto;text-rendering:auto;enable-background:accumulate"
           d="m 4263.6007,5130.5747 -0.061,0.024 c 0,0 -2.5559,1.0001 -5.6288,2.2311 l 0.1675,0.6731 c 3.0639,-1.2287 5.6102,-2.2264 5.6504,-2.2419 l 1.3288,0 c -0.2747,0.1471 -0.5145,0.3044 -0.8112,0.4452 l -0.2803,0.1327 0.1046,0.2923 c 0,0 4.6145,12.9081 18.9046,13.143 6.3787,0.1049 10.7548,-2.8324 13.5949,-6.0659 2.7181,-3.0947 3.994,-6.3472 4.4436,-7.6443 1.7165,0.2248 4.19,0.6509 6.9094,1.1974 l 0.034,-0.6945 c -2.8176,-0.5662 -5.375,-1.0063 -7.1065,-1.2255 l -0.2789,-0.035 -1.4629,0.2669 c 1.8838,0.7576 -0.3037,4.5546 -3.0503,7.6817 -2.7467,3.1271 -6.904,5.934 -13.068,5.8327 -13.4154,-0.2205 -17.8599,-11.6441 -18.1497,-12.4243 0.6179,-0.3061 1.213,-0.619 1.7417,-0.9547 l 0.9963,-0.6342 -3.9756,0 0,0 z m 52.5531,3.4823 -0.2064,0.6194 c 4.2477,1.3273 8.4198,3.3394 10.3982,4.579 2.4043,1.5064 6.8274,5.2668 10.2535,10.0081 3.1152,4.3111 4.9603,10.6977 6.0057,15.9977 0.772,3.9141 1.0873,6.9638 1.2054,8.3494 0.2531,0.025 0.4489,0.045 0.6972,0.07 -0.1369,-1.5517 -0.4727,-4.7356 -1.2255,-8.552 -1.0545,-5.3468 -2.8963,-11.8008 -6.1237,-16.2672 -3.48,-4.816 -8.3719,-8.2155 -10.9654,-9.8405 -2.1173,-1.3266 -5.9115,-3.5599 -10.039,-4.9637 z m -66.3036,2.1104 c -2.9441,1.2733 -5.5642,2.4843 -6.7686,3.277 -3.5871,2.361 -5.5909,5.7067 -7.5061,9.0723 -1.6011,2.8136 -3.2008,7.2975 -4.414,11.0941 -1.2134,3.7966 -2.0341,6.9014 -2.0341,6.9014 l 0,0.011 -1.4991,7.5985 c 0.5793,-0.063 0.5138,-0.058 1.2028,-0.1314 l 0.9641,-7.3143 c 0,-0.011 0.8139,-3.0838 2.0193,-6.8557 1.2076,-3.7787 2.815,-8.252 4.3577,-10.9628 1.9099,-3.3564 3.8499,-6.5786 7.2862,-8.8402 1.0998,-0.724 3.7476,-1.9493 6.7297,-3.2422 l -0.3379,-0.6074 z"
           id="path5014"
           inkscape:connector-curvature="0" />
        <path
           sodipodi:nodetypes="cccccccccccccccccccccccccc"
           inkscape:connector-curvature="0"
           id="path5016"
           d="m 4258.2945,5131.8266 -10.279,3.7964 0.464,1.2148 1.4226,-0.07 c 2.6785,9.07 1.5696,18.183 1.4522,27.3627 0.1673,-0.3797 0.3302,-0.778 0.4867,-1.2041 0.082,-0.2236 0.1567,-0.4711 0.236,-0.7039 0.1629,-8.4903 0.5483,-16.7725 -2.0314,-25.401 l -0.039,-0.1274 -0.4639,-0.9466 8.3186,-3.0055 c 1.9676,5.4966 2.469,13.818 2.3639,23.1973 0.233,0.031 0.4655,0.062 0.6986,0.092 0.1257,-9.616 -0.3666,-18.1916 -2.502,-23.8757 l -0.1233,-0.3298 z m 1.9295,24.2135 c -0.029,2.5249 -0.094,5.0904 -0.1958,7.6711 l -3.5291,4.3309 -4.406,-3.8818 c -0.092,0.2178 -0.1854,0.4292 -0.2816,0.6329 l 4.7681,3.4125 4.1298,-4.2049 0.01,-0.1315 c 0.1034,-2.5993 0.172,-5.1865 0.2065,-7.7353 -0.2331,-0.031 -0.4657,-0.062 -0.6986,-0.094 z"
           style="color:#000000;font-style:normal;font-variant:normal;font-weight:normal;font-stretch:normal;font-size:medium;line-height:normal;font-family:sans-serif;text-indent:0;text-align:start;text-decoration:none;text-decoration-line:none;text-decoration-style:solid;text-decoration-color:#000000;letter-spacing:normal;word-spacing:normal;text-transform:none;direction:ltr;block-progression:tb;writing-mode:lr-tb;baseline-shift:baseline;text-anchor:start;white-space:normal;clip-rule:nonzero;display:inline;overflow:visible;visibility:visible;opacity:1;isolation:auto;mix-blend-mode:normal;color-interpolation:sRGB;color-interpolation-filters:linearRGB;solid-color:#000000;solid-opacity:1;fill:#f9f9f9;fill-opacity:1;fill-rule:evenodd;stroke:none;stroke-width:0;stroke-linecap:butt;stroke-linejoin:miter;stroke-miterlimit:4;stroke-dasharray:none;stroke-dashoffset:0;stroke-opacity:1;color-rendering:auto;image-rendering:auto;shape-rendering:auto;text-rendering:auto;enable-background:accumulate" />
        <path
           sodipodi:nodetypes="ccccccccccccccccccccc"
           inkscape:connector-curvature="0"
           id="path5018"
           d="m 4307.4688,5131.2356 -0.027,0.3809 c -0.6712,9.4081 -1.0984,19.1891 -1.0847,31.632 l 0,0.1677 4.8485,3.7691 4.5012,-3.7437 0.01,-0.1555 c 0.2505,-9.2348 -0.5134,-20.209 0.5484,-28.8054 l 1.4799,-0.2541 -0.2771,-1.7103 -9.9934,-1.2807 z m 0.6383,0.8126 8.5867,1.0272 -1.0928,1.0928 -0.014,0.1167 c -1.0893,8.6787 -0.3235,19.6423 -0.5617,28.8322 l -3.7109,2.5742 -4.2672,-2.6077 c -0.01,-12.1873 0.041,-21.7853 0.6928,-31.0354 z"
           style="color:#000000;font-style:normal;font-variant:normal;font-weight:normal;font-stretch:normal;font-size:medium;line-height:normal;font-family:sans-serif;text-indent:0;text-align:start;text-decoration:none;text-decoration-line:none;text-decoration-style:solid;text-decoration-color:#000000;letter-spacing:normal;word-spacing:normal;text-transform:none;direction:ltr;block-progression:tb;writing-mode:lr-tb;baseline-shift:baseline;text-anchor:start;white-space:normal;clip-rule:nonzero;display:inline;overflow:visible;visibility:visible;opacity:1;isolation:auto;mix-blend-mode:normal;color-interpolation:sRGB;color-interpolation-filters:linearRGB;solid-color:#000000;solid-opacity:1;fill:#f9f9f9;fill-opacity:1;fill-rule:evenodd;stroke:none;stroke-width:0;stroke-linecap:butt;stroke-linejoin:miter;stroke-miterlimit:4;stroke-dasharray:none;stroke-dashoffset:0;stroke-opacity:1;color-rendering:auto;image-rendering:auto;shape-rendering:auto;text-rendering:auto;enable-background:accumulate" />
        <path
           id="path5020"
           d="m 4260.224,5155.8015 c -4e-4,0.042 0,0.08 0,0.122 0.2323,0.032 0.4661,0.056 0.6986,0.087 6e-4,-0.043 0,-0.082 0,-0.1248 -0.2325,-0.029 -0.4661,-0.053 -0.6985,-0.084 z"
           style="color:#000000;font-style:normal;font-variant:normal;font-weight:normal;font-stretch:normal;font-size:medium;line-height:normal;font-family:sans-serif;text-indent:0;text-align:start;text-decoration:none;text-decoration-line:none;text-decoration-style:solid;text-decoration-color:#000000;letter-spacing:normal;word-spacing:normal;text-transform:none;direction:ltr;block-progression:tb;writing-mode:lr-tb;baseline-shift:baseline;text-anchor:start;white-space:normal;clip-rule:nonzero;display:inline;overflow:visible;visibility:visible;opacity:1;isolation:auto;mix-blend-mode:normal;color-interpolation:sRGB;color-interpolation-filters:linearRGB;solid-color:#000000;solid-opacity:1;fill:#f9f9f9;fill-opacity:1;fill-rule:evenodd;stroke:none;stroke-width:0;stroke-linecap:butt;stroke-linejoin:miter;stroke-miterlimit:4;stroke-dasharray:none;stroke-dashoffset:0;stroke-opacity:1;color-rendering:auto;image-rendering:auto;shape-rendering:auto;text-rendering:auto;enable-background:accumulate"
           inkscape:connector-curvature="0" />
        <path
           id="path5022"
           d="m 4251.841,5162.9267 c 0.082,-0.2236 0.1567,-0.4711 0.236,-0.7039 5e-4,-0.027 -5e-4,-0.054 0,-0.081 -0.088,0.2591 -0.145,0.5365 -0.236,0.7844 z"
           style="color:#000000;font-style:normal;font-variant:normal;font-weight:normal;font-stretch:normal;font-size:medium;line-height:normal;font-family:sans-serif;text-indent:0;text-align:start;text-decoration:none;text-decoration-line:none;text-decoration-style:solid;text-decoration-color:#000000;letter-spacing:normal;word-spacing:normal;text-transform:none;direction:ltr;block-progression:tb;writing-mode:lr-tb;baseline-shift:baseline;text-anchor:start;white-space:normal;clip-rule:nonzero;display:inline;overflow:visible;visibility:visible;opacity:1;isolation:auto;mix-blend-mode:normal;color-interpolation:sRGB;color-interpolation-filters:linearRGB;solid-color:#000000;solid-opacity:1;fill:#f9f9f9;fill-opacity:1;fill-rule:evenodd;stroke:none;stroke-width:0;stroke-linecap:butt;stroke-linejoin:miter;stroke-miterlimit:4;stroke-dasharray:none;stroke-dashoffset:0;stroke-opacity:1;color-rendering:auto;image-rendering:auto;shape-rendering:auto;text-rendering:auto;enable-background:accumulate"
           inkscape:connector-curvature="0" />
        <path
           id="path5024"
           d="m 4251.3596,5163.9122 c 0,0.073 -0.01,0.1455 -0.01,0.2186 0.1673,-0.3797 0.3302,-0.778 0.4867,-1.2041 -0.1467,0.3995 -0.3251,0.6264 -0.4814,0.9855 z"
           style="color:#000000;font-style:normal;font-variant:normal;font-weight:normal;font-stretch:normal;font-size:medium;line-height:normal;font-family:sans-serif;text-indent:0;text-align:start;text-decoration:none;text-decoration-line:none;text-decoration-style:solid;text-decoration-color:#000000;letter-spacing:normal;word-spacing:normal;text-transform:none;direction:ltr;block-progression:tb;writing-mode:lr-tb;baseline-shift:baseline;text-anchor:start;white-space:normal;clip-rule:nonzero;display:inline;overflow:visible;visibility:visible;opacity:1;isolation:auto;mix-blend-mode:normal;color-interpolation:sRGB;color-interpolation-filters:linearRGB;solid-color:#000000;solid-opacity:1;fill:#f9f9f9;fill-opacity:1;fill-rule:evenodd;stroke:none;stroke-width:0;stroke-linecap:butt;stroke-linejoin:miter;stroke-miterlimit:4;stroke-dasharray:none;stroke-dashoffset:0;stroke-opacity:1;color-rendering:auto;image-rendering:auto;shape-rendering:auto;text-rendering:auto;enable-background:accumulate"
           inkscape:connector-curvature="0" />
        <path
           id="path5026"
           d="m 4255.6573,5160.0128 a 1.9730439,2.0115706 45.27699 0 1 2.7186,0.6204 1.9730439,2.0115706 45.27699 0 1 -0.64,2.7379 1.9730439,2.0115706 45.27699 0 1 -2.7342,-0.5535 1.9730439,2.0115706 45.27699 0 1 0.5733,-2.7516"
           style="opacity:1;fill:#f9f9f9;fill-opacity:1;stroke:#000000;stroke-width:0;stroke-linecap:round;stroke-linejoin:round;stroke-miterlimit:4;stroke-dasharray:none;stroke-dashoffset:0;stroke-opacity:1"
           inkscape:connector-curvature="0" />
        <path
           id="path5028"
           d="m 4310.0235,5158.9889 a 1.9730439,2.0115706 45.27699 0 1 2.7186,0.6204 1.9730439,2.0115706 45.27699 0 1 -0.6399,2.738 1.9730439,2.0115706 45.27699 0 1 -2.7343,-0.5536 1.9730439,2.0115706 45.27699 0 1 0.5733,-2.7515"
           style="opacity:1;fill:#f9f9f9;fill-opacity:1;stroke:#000000;stroke-width:0;stroke-linecap:round;stroke-linejoin:round;stroke-miterlimit:4;stroke-dasharray:none;stroke-dashoffset:0;stroke-opacity:1"
           inkscape:connector-curvature="0" />
        <path
           sodipodi:nodetypes="cccccccccccccccccccccccccccccccccccccccccccc"
           inkscape:connector-curvature="0"
           id="path5030"
           d="m 4285.2804,5076.3495 -2.3853,2.6951 -2.376,-2.5798 -2.2607,2.8587 -2.4725,-2.1183 -2.4457,3.0234 -1.9711,-2.2806 -2.4363,3.14 -3.1993,-2.1199 -2.0286,3.8818 -2.5624,-2.6147 -1.8262,4.0762 -1.7862,-2.111 1.9403,2.7573 1.7981,-4.0145 2.5369,2.5865 2.0783,-3.9769 3.1658,2.0984 2.3276,-3.5854 1.9644,2.8841 2.49,-3.702 2.4483,2.7004 2.2621,-2.6162 2.3599,2.3172 2.3679,-2.6777 2.5329,3.0692 2.3304,-2.8439 1.9576,3.678 2.3532,-2.5762 1.6466,3.3551 2.8988,-2.1308 1.0714,3.8552 2.4269,-3.2502 1.7968,4.2947 -0.2402,0.2123 -1.4573,-5.3169 -2.3184,3.1068 -1.0512,-3.7627 -3.0048,2.2502 -1.6707,-3.4075 -2.1442,2.3806 -2.1921,-3.4153 -2.4041,2.9337 z"
           style="color:#000000;font-style:normal;font-variant:normal;font-weight:normal;font-stretch:normal;font-size:medium;line-height:normal;font-family:sans-serif;text-indent:0;text-align:start;text-decoration:none;text-decoration-line:none;text-decoration-style:solid;text-decoration-color:#000000;letter-spacing:normal;word-spacing:normal;text-transform:none;direction:ltr;block-progression:tb;writing-mode:lr-tb;baseline-shift:baseline;text-anchor:start;white-space:normal;clip-rule:nonzero;display:inline;overflow:visible;visibility:visible;opacity:1;isolation:auto;mix-blend-mode:normal;color-interpolation:sRGB;color-interpolation-filters:linearRGB;solid-color:#000000;solid-opacity:1;fill:#f9f9f9;fill-opacity:1;fill-rule:evenodd;stroke:none;stroke-width:0;stroke-linecap:butt;stroke-linejoin:miter;stroke-miterlimit:4;stroke-dasharray:none;stroke-dashoffset:0;stroke-opacity:1;color-rendering:auto;image-rendering:auto;shape-rendering:auto;text-rendering:auto;enable-background:accumulate" />
        <g
           style="font-style:normal;font-variant:normal;font-weight:normal;font-stretch:normal;font-size:49.87678528px;line-height:125%;font-family:'Bebas Neue';-inkscape-font-specification:'Bebas Neue, Normal';text-align:start;letter-spacing:0px;word-spacing:0px;writing-mode:lr-tb;text-anchor:start;fill:url(#linearGradient5103);fill-opacity:1;stroke:#6b6b6b;stroke-width:1px;stroke-linecap:butt;stroke-linejoin:miter;stroke-opacity:1"
           id="g5032"
           transform="matrix(0.68651466,0,0,0.68651466,1698.1114,1895.9322)">
          <path
             d="m 3683.0895,4790.609 2.4938,0 0,6.4341 c 0,2.4938 -1.0973,3.3916 -2.843,3.3916 -1.7456,0 -2.8429,-0.8978 -2.8429,-3.3916 l 0,-18.8534 c 0,-2.4939 1.0973,-3.4415 2.8429,-3.4415 1.7457,0 2.843,0.9476 2.843,3.4415 l 0,3.7407 5.1872,0 0,-3.3916 c 0,-5.5862 -2.7931,-8.7783 -8.1798,-8.7783 -5.3867,0 -8.1798,3.1921 -8.1798,8.7783 l 0,18.1551 c 0,5.5862 2.7931,8.7784 8.1798,8.7784 5.3867,0 8.1798,-3.1922 8.1798,-8.7784 l 0,-11.0726 -7.681,0 0,4.9877 z"
             style="fill:url(#linearGradient5932);fill-opacity:1;stroke:#6b6b6b;stroke-opacity:1"
             id="path5034"
             inkscape:connector-curvature="0" />
          <path
             d="m 3702.2227,4769.7598 c -5.3867,0 -8.3282,3.1931 -8.3282,8.7793 l 0,18.1543 c 0,5.5862 2.9415,8.7793 8.3282,8.7793 4.4394,0 8.5706,-2.173 9.8886,-6.0625 1.3182,3.8893 5.4475,6.0625 9.8867,6.0625 5.3867,0 8.3301,-3.1931 8.3301,-8.7793 l 0,-18.1543 c 0,-5.5862 -2.9434,-8.7793 -8.3301,-8.7793 -4.4391,0 -8.5684,2.1734 -9.8867,6.0625 -1.3181,-3.8894 -5.4493,-6.0625 -9.8886,-6.0625 z m 0,4.9882 c 1.7457,0 2.8437,0.9476 2.8437,3.4415 l 0,18.8535 c 0,2.4938 -1.098,3.4414 -2.8437,3.4414 -1.7457,0 -2.8418,-0.9476 -2.8418,-3.4414 l 0,-18.8535 c 0,-2.4939 1.0961,-3.4415 2.8418,-3.4415 z m 19.7753,0 c 1.7457,0 2.8438,0.9476 2.8438,3.4415 l 0,18.8535 c 0,2.4938 -1.0981,3.4414 -2.8438,3.4414 -1.7457,0 -2.8418,-0.9476 -2.8418,-3.4414 l 0,-18.8535 c 0,-2.4939 1.0961,-3.4415 2.8418,-3.4415 z"
             id="path5036"
             style="fill:url(#linearGradient5934);fill-opacity:1;stroke:#6b6b6b;stroke-opacity:1"
             inkscape:connector-curvature="0" />
          <path
             d="m 3750.9515,4805.0732 c -0.5486,-1.2968 -0.5985,-2.5437 -0.5985,-4.2395 l 0,-5.3867 c 0,-3.641 -0.8978,-6.2346 -3.641,-7.3817 l 0,-0.1 c 2.444,-1.1472 3.5911,-3.4415 3.5911,-7.0326 l 0,-2.7432 c 0,-5.3867 -2.4439,-8.0302 -8.1299,-8.0302 l -8.2795,0 0,34.9137 5.4864,0 0,-14.2148 1.8953,0 c 2.4939,0 3.5912,1.197 3.5912,4.439 l 0,5.4864 c 0,2.843 0.1995,3.3917 0.4987,4.2894 l 5.5862,0 z m -8.9279,-29.926 c 1.9452,0 2.7931,1.0973 2.7931,3.5911 l 0,3.4415 c 0,2.7931 -1.2469,3.6909 -3.2919,3.6909 l -2.1447,0 0,-10.7235 2.6435,0 z"
             style="fill:url(#linearGradient5936);fill-opacity:1;stroke:#6b6b6b;stroke-opacity:1"
             id="path5038"
             inkscape:connector-curvature="0" />
          <path
             d="m 3762.191,4790.609 2.4938,0 0,6.4341 c 0,2.4938 -1.0973,3.3916 -2.843,3.3916 -1.7457,0 -2.843,-0.8978 -2.843,-3.3916 l 0,-18.8534 c 0,-2.4939 1.0973,-3.4415 2.843,-3.4415 1.7457,0 2.843,0.9476 2.843,3.4415 l 0,3.7407 5.1872,0 0,-3.3916 c 0,-5.5862 -2.7931,-8.7783 -8.1798,-8.7783 -5.3867,0 -8.1798,3.1921 -8.1798,8.7783 l 0,18.1551 c 0,5.5862 2.7931,8.7784 8.1798,8.7784 5.3867,0 8.1798,-3.1922 8.1798,-8.7784 l 0,-11.0726 -7.681,0 0,4.9877 z"
             style="fill:url(#linearGradient5938);fill-opacity:1;stroke:#6b6b6b;stroke-opacity:1"
             id="path5040"
             inkscape:connector-curvature="0" />
          <path
             d="m 3781.3242,4769.7598 c -5.3867,0 -8.3281,3.1931 -8.3281,8.7793 l 0,18.1543 c 0,5.5862 2.9414,8.7793 8.3281,8.7793 4.4394,0 8.5706,-2.173 9.8887,-6.0625 1.3182,3.8893 5.4474,6.0625 9.8867,6.0625 5.3867,0 8.3301,-3.1931 8.3301,-8.7793 l 0,-18.1543 c 0,-5.5862 -2.9434,-8.7793 -8.3301,-8.7793 -4.4391,0 -8.5684,2.1734 -9.8867,6.0625 -1.3182,-3.8894 -5.4494,-6.0625 -9.8887,-6.0625 z m 0,4.9882 c 1.7457,0 2.8438,0.9476 2.8438,3.4415 l 0,18.8535 c 0,2.4938 -1.0981,3.4414 -2.8438,3.4414 -1.7457,0 -2.8418,-0.9476 -2.8418,-3.4414 l 0,-18.8535 c 0,-2.4939 1.0961,-3.4415 2.8418,-3.4415 z m 19.7754,0 c 1.7457,0 2.8438,0.9476 2.8438,3.4415 l 0,18.8535 c 0,2.4938 -1.0981,3.4414 -2.8438,3.4414 -1.7457,0 -2.8418,-0.9476 -2.8418,-3.4414 l 0,-18.8535 c 0,-2.4939 1.0961,-3.4415 2.8418,-3.4415 z"
             id="path5042"
             style="fill:url(#linearGradient5940);fill-opacity:1;stroke:#6b6b6b;stroke-opacity:1"
             inkscape:connector-curvature="0" />
          <path
             d="m 3830.053,4805.0732 c -0.5487,-1.2968 -0.5985,-2.5437 -0.5985,-4.2395 l 0,-5.3867 c 0,-3.641 -0.8978,-6.2346 -3.641,-7.3817 l 0,-0.1 c 2.4439,-1.1472 3.5911,-3.4415 3.5911,-7.0326 l 0,-2.7432 c 0,-5.3867 -2.444,-8.0302 -8.1299,-8.0302 l -8.2796,0 0,34.9137 5.4865,0 0,-14.2148 1.8953,0 c 2.4938,0 3.5911,1.197 3.5911,4.439 l 0,5.4864 c 0,2.843 0.1995,3.3917 0.4988,4.2894 l 5.5862,0 z m -8.928,-29.926 c 1.9452,0 2.7931,1.0973 2.7931,3.5911 l 0,3.4415 c 0,2.7931 -1.2469,3.6909 -3.2918,3.6909 l -2.1447,0 0,-10.7235 2.6434,0 z"
             style="fill:url(#linearGradient5942);fill-opacity:1;stroke:#6b6b6b;stroke-opacity:1"
             id="path5044"
             inkscape:connector-curvature="0" />
          <path
             d="m 3833.0627,4805.0732 14.5142,0 0,-4.9876 -9.0277,0 0,-29.9261 -5.4865,0 0,34.9137 z"
             style="fill:url(#linearGradient5944);fill-opacity:1;stroke:#6b6b6b;stroke-opacity:1"
             id="path5046"
             inkscape:connector-curvature="0" />
          <path
             d="m 3849.7637,4770.1595 0,26.5843 c 0,5.5862 2.7931,8.7783 8.1798,8.7783 5.3867,0 8.1798,-3.1921 8.1798,-8.7783 l 0,-26.5843 -5.1872,0 0,26.9335 c 0,2.4938 -1.0973,3.3916 -2.843,3.3916 -1.7457,0 -2.843,-0.8978 -2.843,-3.3916 l 0,-26.9335 -5.4864,0 z"
             style="fill:url(#linearGradient5946);fill-opacity:1;stroke:#6b6b6b;stroke-opacity:1"
             id="path5048"
             inkscape:connector-curvature="0" />
        </g>
        <path
           style="color:#000000;font-style:normal;font-variant:normal;font-weight:normal;font-stretch:normal;font-size:medium;line-height:normal;font-family:sans-serif;text-indent:0;text-align:start;text-decoration:none;text-decoration-line:none;text-decoration-style:solid;text-decoration-color:#000000;letter-spacing:normal;word-spacing:normal;text-transform:none;direction:ltr;block-progression:tb;writing-mode:lr-tb;baseline-shift:baseline;text-anchor:start;white-space:normal;clip-rule:nonzero;display:inline;overflow:visible;visibility:visible;opacity:1;isolation:auto;mix-blend-mode:normal;color-interpolation:sRGB;color-interpolation-filters:linearRGB;solid-color:#000000;solid-opacity:1;fill:#f9f9f9;fill-opacity:1;fill-rule:evenodd;stroke:none;stroke-width:0;stroke-linecap:butt;stroke-linejoin:miter;stroke-miterlimit:4;stroke-dasharray:none;stroke-dashoffset:0;stroke-opacity:1;color-rendering:auto;image-rendering:auto;shape-rendering:auto;text-rendering:auto;enable-background:accumulate"
           d="m 4260.224,5155.8015 c -4e-4,0.042 0,0.08 0,0.122 0.2323,0.032 0.4661,0.056 0.6986,0.087 6e-4,-0.043 0,-0.082 0,-0.1248 -0.2325,-0.029 -0.4661,-0.053 -0.6985,-0.084 z"
           id="path5050"
           inkscape:connector-curvature="0" />
        <path
           style="color:#000000;font-style:normal;font-variant:normal;font-weight:normal;font-stretch:normal;font-size:medium;line-height:normal;font-family:sans-serif;text-indent:0;text-align:start;text-decoration:none;text-decoration-line:none;text-decoration-style:solid;text-decoration-color:#000000;letter-spacing:normal;word-spacing:normal;text-transform:none;direction:ltr;block-progression:tb;writing-mode:lr-tb;baseline-shift:baseline;text-anchor:start;white-space:normal;clip-rule:nonzero;display:inline;overflow:visible;visibility:visible;opacity:1;isolation:auto;mix-blend-mode:normal;color-interpolation:sRGB;color-interpolation-filters:linearRGB;solid-color:#000000;solid-opacity:1;fill:#f9f9f9;fill-opacity:1;fill-rule:evenodd;stroke:none;stroke-width:0;stroke-linecap:butt;stroke-linejoin:miter;stroke-miterlimit:4;stroke-dasharray:none;stroke-dashoffset:0;stroke-opacity:1;color-rendering:auto;image-rendering:auto;shape-rendering:auto;text-rendering:auto;enable-background:accumulate"
           d="m 4251.841,5162.9267 c 0.082,-0.2236 0.1567,-0.4711 0.236,-0.7039 5e-4,-0.027 -5e-4,-0.054 0,-0.081 -0.088,0.2591 -0.145,0.5365 -0.236,0.7844 z"
           id="path5052"
           inkscape:connector-curvature="0" />
        <path
           style="color:#000000;font-style:normal;font-variant:normal;font-weight:normal;font-stretch:normal;font-size:medium;line-height:normal;font-family:sans-serif;text-indent:0;text-align:start;text-decoration:none;text-decoration-line:none;text-decoration-style:solid;text-decoration-color:#000000;letter-spacing:normal;word-spacing:normal;text-transform:none;direction:ltr;block-progression:tb;writing-mode:lr-tb;baseline-shift:baseline;text-anchor:start;white-space:normal;clip-rule:nonzero;display:inline;overflow:visible;visibility:visible;opacity:1;isolation:auto;mix-blend-mode:normal;color-interpolation:sRGB;color-interpolation-filters:linearRGB;solid-color:#000000;solid-opacity:1;fill:#f9f9f9;fill-opacity:1;fill-rule:evenodd;stroke:none;stroke-width:0;stroke-linecap:butt;stroke-linejoin:miter;stroke-miterlimit:4;stroke-dasharray:none;stroke-dashoffset:0;stroke-opacity:1;color-rendering:auto;image-rendering:auto;shape-rendering:auto;text-rendering:auto;enable-background:accumulate"
           d="m 4317.1447,5154.1214 -0.3217,0.066 c -0.5501,0.1117 -1.0987,0.2096 -1.6479,0.3151 l -0.035,0.6959 c 0.4963,-0.094 0.9914,-0.1804 1.4883,-0.2802 0.4194,1.759 0.8597,4.1123 1.6479,6.2497 0.7948,2.1549 1.4536,4.4139 3.3722,5.1207 l 0.4948,5.37 c 0.2945,0.024 0.5739,0.05 0.8675,0.074 l -0.1676,-6.2564 -0.2387,-0.071 c -1.7489,-0.5236 -2.885,-2.3073 -3.6846,-4.4758 -0.7998,-2.1685 -1.2464,-4.6688 -1.6962,-6.4884 l -0.079,-0.3191 z m -10.1582,1.7377 c -15.6913,2.179 -31.04,1.9513 -46.0635,0.027 -5e-4,0.043 0,0.082 0,0.1248 15.0178,1.9909 30.4153,2.5482 46.109,0.488 l -0.045,-0.6396 z m -55.3355,7.7944 c -0.092,-0.01 -0.1944,0.24 -0.299,0.4773 0,-0.073 0.01,-0.1454 0.01,-0.2186 -0.3125,0.7185 -0.6165,1.4983 -0.9627,1.9711 -0.5193,0.7093 -1.0271,1.0469 -1.5689,1.0096 l -0.8957,-0.027 0.6343,5.185 c 0.285,-0.025 0.5833,-0.051 0.8702,-0.076 l -0.2735,-4.4999 c 0.6827,-0.1062 1.2943,-0.5119 1.7873,-1.1853 0.5246,-0.7164 0.9733,-1.6722 0.8528,-2.3049 -0.045,-0.2372 -0.096,-0.3287 -0.1515,-0.3312 z"
           id="path5054"
           inkscape:connector-curvature="0" />
        <path
           style="color:#000000;font-style:normal;font-variant:normal;font-weight:normal;font-stretch:normal;font-size:medium;line-height:normal;font-family:sans-serif;text-indent:0;text-align:start;text-decoration:none;text-decoration-line:none;text-decoration-style:solid;text-decoration-color:#000000;letter-spacing:normal;word-spacing:normal;text-transform:none;direction:ltr;block-progression:tb;writing-mode:lr-tb;baseline-shift:baseline;text-anchor:start;white-space:normal;clip-rule:nonzero;display:inline;overflow:visible;visibility:visible;opacity:1;isolation:auto;mix-blend-mode:normal;color-interpolation:sRGB;color-interpolation-filters:linearRGB;solid-color:#000000;solid-opacity:1;fill:#f9f9f9;fill-opacity:1;fill-rule:evenodd;stroke:none;stroke-width:0;stroke-linecap:butt;stroke-linejoin:miter;stroke-miterlimit:4;stroke-dasharray:none;stroke-dashoffset:0;stroke-opacity:1;color-rendering:auto;image-rendering:auto;shape-rendering:auto;text-rendering:auto;enable-background:accumulate"
           d="m 4251.3596,5163.9122 c 0,0.073 -0.01,0.1455 -0.01,0.2186 0.1673,-0.3797 0.3302,-0.778 0.4867,-1.2041 -0.1467,0.3995 -0.3251,0.6264 -0.4814,0.9855 z"
           id="path5056"
           inkscape:connector-curvature="0" />
      </g>
      <path
         inkscape:label="loop"
         transform="scale(-1,1)"
         d="m -167.22188,1019.6065 a 93.148308,93.148308 0 0 1 -8.59798,-120.98595 93.148308,93.148308 0 0 1 118.266977,-26.91553"
         sodipodi:open="true"
         sodipodi:end="5.1976033"
         sodipodi:start="2.3616602"
         sodipodi:ry="93.148308"
         sodipodi:rx="93.148308"
         sodipodi:cy="954.10168"
         sodipodi:cx="-100.99706"
         sodipodi:type="arc"
         id="loop"
         style="opacity:1;fill:none;fill-opacity:0.89408869;stroke:#ffffff;stroke-width:3.95174623;stroke-linecap:round;stroke-linejoin:round;stroke-miterlimit:4;stroke-dasharray:none;stroke-dashoffset:0;stroke-opacity:1" />

      <animate 
          xlink:href="#loop"
          attributeName="d" 
          dur="1000ms"
          values="M 68,0 
         52,15.899 0,47 12,212 47,251.793 120,207 110,325.793 78,328.793 57,296.793 10,318.793 
    23.239,408.725 43.143,421.587 173,390 188,353 179,151 177.959,96.168 122,87 111,149 82,146 84,88 177,113 181.843,28 117,0,0  
        Z;M 68,0 
         52,15.899 0,47 12,212 47,251.793 120,207 110,325.793 78,328.793 57,296.793 10,318.793 
    23.239,408.725 43.143,421.587 173,390 188,353 179,151 177.959,96.168 122,87 111,149 82,146 84,88 177,113 181.843,28 117,0,0  
        Z;

        
              
              M 78,0 
         15,31.587 0,68.587 25,229.587 7,247.587 6,324.587 66,334.587 77,272.587 106,275.587 104,333.587 
    6.959,307.755 6.157,393.587 71,421.587 136,405.688 188,374.587 176,209.587 68,214.587 72,137.587 107,124.587 107.535,227.573 
    156.882,222.671 164.761,12.862 144.857,0,0  
        Z;M 78,0 
         15,31.587 0,68.587 25,229.587 7,247.587 6,324.587 66,334.587 77,272.587 106,275.587 104,333.587 
    6.959,307.755 6.157,393.587 71,421.587 136,405.688 188,374.587 176,209.587 68,214.587 72,137.587 107,124.587 107.535,227.573 
    156.882,222.671 164.761,12.862 144.857,0,0  
        Z;"
          />
      <path
         transform="scale(-1,1)"
         d="M -130.60386,1040.0716 A 91.039917,91.039917 0 0 1 -189.97319,932.07927 91.039917,91.039917 0 0 1 -87.337329,863.86679"
         sodipodi:end="4.869252"
         sodipodi:start="1.8954994"
         sodipodi:ry="91.039917"
         sodipodi:rx="91.039917"
         sodipodi:cy="953.78894"
         sodipodi:cx="-101.55963"
         sodipodi:type="arc"
         id="path5139"
         style="opacity:1;fill:#333333;fill-opacity:0.0933735;stroke:none;stroke-width:2;stroke-linecap:round;stroke-linejoin:round;stroke-miterlimit:4;stroke-dasharray:none;stroke-dashoffset:0;stroke-opacity:1"
         sodipodi:open="true" />
    </g>
  </g>
</svg>
